0
SECTION
2
HEADER
9
$INSUNITS
70
4
0
ENDSEC
0
SECTION
2
TABLES
0
TABLE
2
LTYPE
0
LTYPE
72
65
70
64
2
CONTINUOUS
3
______
73
0
40
0
0
ENDTAB
0
TABLE
2
LAYER
0
ENDTAB
0
ENDSEC
0
SECTION
2
ENTITIES
0
LINE
8
0
10
28
20
-3
11
28
21
-6.5
0
LINE
8
0
10
11
20
-9.5
11
25
21
-9.5
0
LINE
8
0
10
8
20
-6.5
11
8
21
40.5
0
LINE
8
0
10
11
20
43.5
11
23
21
43.5
0
LINE
8
0
10
29
20
53.5
11
41
21
53.5
0
LINE
8
0
10
26
20
46.5
11
26
21
50.5
0
LINE
8
0
10
31
20
0
11
71
21
0
0
LINE
8
0
10
47
20
60.5
11
61
21
60.5
0
LINE
8
0
10
64
20
57.5
11
64
21
56.5
0
LINE
8
0
10
44
20
56.5
11
44
21
57.5
0
LINE
8
0
10
67
20
53.5
11
118
21
53.5
0
LINE
8
0
10
121
20
-18.895837
11
121
21
50.5
0
LINE
8
0
10
77
20
-19.5
11
87.5517678
21
-19.5
0
LINE
8
0
10
74
20
-16.5
11
74
21
-3
0
LINE
8
0
10
121
20
-18.895837
11
121.0757359
21
-18.9715729
0
LINE
8
0
10
106.7921789
20
-33.2551299
11
121.0757359
21
-18.9715729
0
LINE
8
0
10
89.6730881
20
-20.3786797
11
102.5495383
21
-33.2551299
0
ARC
8
0
10
25
20
-6.5
40
3
50
270
51
0
0
ARC
8
0
10
11
20
-6.5
40
3
50
180
51
270
0
ARC
8
0
10
11
20
40.5
40
3
50
90
51
180
0
ARC
8
0
10
23
20
46.5
40
3
50
270
51
0
0
ARC
8
0
10
29
20
50.5
40
3
50
90
51
180
0
ARC
8
0
10
41
20
56.5
40
3
50
270
51
0
0
ARC
8
0
10
47
20
57.5
40
3
50
90
51
180
0
ARC
8
0
10
61
20
57.5
40
3
50
0
51
90
0
ARC
8
0
10
67
20
56.5
40
3
50
180
51
270
0
ARC
8
0
10
118
20
50.5
40
3
50
0
51
90
0
ARC
8
0
10
104.6708586
20
-31.1338096
40
3
50
225
51
315
0
ARC
8
0
10
87.5517678
20
-22.5
40
3
50
45
51
90
0
ARC
8
0
10
77
20
-16.5
40
3
50
180
51
270
0
ARC
8
0
10
71
20
-3
40
3
50
0
51
90
0
ARC
8
0
10
31
20
-3
40
3
50
90
51
180
0
ENDSEC
0
EOF