0
SECTION
2
HEADER
9
$INSUNITS
70
4
0
ENDSEC
0
SECTION
2
TABLES
0
TABLE
2
LTYPE
0
LTYPE
72
65
70
64
2
CONTINUOUS
3
______
73
0
40
0
0
ENDTAB
0
TABLE
2
LAYER
0
ENDTAB
0
ENDSEC
0
SECTION
2
ENTITIES
0
LINE
8
0
10
9.25
20
-8.25
11
26.75
21
-8.25
0
LINE
8
0
10
26.75
20
-8.25
11
26.75
21
8.25
0
LINE
8
0
10
26.75
20
8.25
11
9.25
21
8.25
0
LINE
8
0
10
9.25
20
8.25
11
9.25
21
-8.25
0
LINE
8
0
10
9.25
20
8.75
11
26.75
21
8.75
0
LINE
8
0
10
26.75
20
8.75
11
26.75
21
25.25
0
LINE
8
0
10
26.75
20
25.25
11
9.25
21
25.25
0
LINE
8
0
10
9.25
20
25.25
11
9.25
21
8.75
0
LINE
8
0
10
9.25
20
25.75
11
26.75
21
25.75
0
LINE
8
0
10
26.75
20
25.75
11
26.75
21
42.25
0
LINE
8
0
10
26.75
20
42.25
11
9.25
21
42.25
0
LINE
8
0
10
9.25
20
42.25
11
9.25
21
25.75
0
LINE
8
0
10
27.25
20
1.75
11
44.75
21
1.75
0
LINE
8
0
10
44.75
20
1.75
11
44.75
21
18.25
0
LINE
8
0
10
44.75
20
18.25
11
27.25
21
18.25
0
LINE
8
0
10
27.25
20
18.25
11
27.25
21
1.75
0
LINE
8
0
10
27.25
20
18.75
11
44.75
21
18.75
0
LINE
8
0
10
44.75
20
18.75
11
44.75
21
35.25
0
LINE
8
0
10
44.75
20
35.25
11
27.25
21
35.25
0
LINE
8
0
10
27.25
20
35.25
11
27.25
21
18.75
0
LINE
8
0
10
27.25
20
35.75
11
44.75
21
35.75
0
LINE
8
0
10
44.75
20
35.75
11
44.75
21
52.25
0
LINE
8
0
10
44.75
20
52.25
11
27.25
21
52.25
0
LINE
8
0
10
27.25
20
52.25
11
27.25
21
35.75
0
LINE
8
0
10
45.25
20
8.75
11
62.75
21
8.75
0
LINE
8
0
10
62.75
20
8.75
11
62.75
21
25.25
0
LINE
8
0
10
62.75
20
25.25
11
45.25
21
25.25
0
LINE
8
0
10
45.25
20
25.25
11
45.25
21
8.75
0
LINE
8
0
10
45.25
20
25.75
11
62.75
21
25.75
0
LINE
8
0
10
62.75
20
25.75
11
62.75
21
42.25
0
LINE
8
0
10
62.75
20
42.25
11
45.25
21
42.25
0
LINE
8
0
10
45.25
20
42.25
11
45.25
21
25.75
0
LINE
8
0
10
45.25
20
42.75
11
62.75
21
42.75
0
LINE
8
0
10
62.75
20
42.75
11
62.75
21
59.25
0
LINE
8
0
10
62.75
20
59.25
11
45.25
21
59.25
0
LINE
8
0
10
45.25
20
59.25
11
45.25
21
42.75
0
LINE
8
0
10
63.25
20
1.75
11
80.75
21
1.75
0
LINE
8
0
10
80.75
20
1.75
11
80.75
21
18.25
0
LINE
8
0
10
80.75
20
18.25
11
63.25
21
18.25
0
LINE
8
0
10
63.25
20
18.25
11
63.25
21
1.75
0
LINE
8
0
10
63.25
20
18.75
11
80.75
21
18.75
0
LINE
8
0
10
80.75
20
18.75
11
80.75
21
35.25
0
LINE
8
0
10
80.75
20
35.25
11
63.25
21
35.25
0
LINE
8
0
10
63.25
20
35.25
11
63.25
21
18.75
0
LINE
8
0
10
63.25
20
35.75
11
80.75
21
35.75
0
LINE
8
0
10
80.75
20
35.75
11
80.75
21
52.25
0
LINE
8
0
10
80.75
20
52.25
11
63.25
21
52.25
0
LINE
8
0
10
63.25
20
52.25
11
63.25
21
35.75
0
LINE
8
0
10
81.25
20
1.75
11
98.75
21
1.75
0
LINE
8
0
10
98.75
20
1.75
11
98.75
21
18.25
0
LINE
8
0
10
98.75
20
18.25
11
81.25
21
18.25
0
LINE
8
0
10
81.25
20
18.25
11
81.25
21
1.75
0
LINE
8
0
10
81.25
20
18.75
11
98.75
21
18.75
0
LINE
8
0
10
98.75
20
18.75
11
98.75
21
35.25
0
LINE
8
0
10
98.75
20
35.25
11
81.25
21
35.25
0
LINE
8
0
10
81.25
20
35.25
11
81.25
21
18.75
0
LINE
8
0
10
81.25
20
35.75
11
98.75
21
35.75
0
LINE
8
0
10
98.75
20
35.75
11
98.75
21
52.25
0
LINE
8
0
10
98.75
20
52.25
11
81.25
21
52.25
0
LINE
8
0
10
81.25
20
52.25
11
81.25
21
35.75
0
LINE
8
0
10
76.25
20
-18.25
11
93.75
21
-18.25
0
LINE
8
0
10
93.75
20
-18.25
11
93.75
21
-1.75
0
LINE
8
0
10
93.75
20
-1.75
11
76.25
21
-1.75
0
LINE
8
0
10
76.25
20
-1.75
11
76.25
21
-18.25
0
LINE
8
0
10
104.6708586
20
-33.6086833
11
117.0452273
21
-21.2343146
0
LINE
8
0
10
117.0452273
20
-21.2343146
11
105.3779654
21
-9.5670527
0
LINE
8
0
10
105.3779654
20
-9.5670527
11
93.0035967
21
-21.9414214
0
LINE
8
0
10
93.0035967
20
-21.9414214
11
104.6708586
21
-33.6086833
0
ENDSEC
0
EOF