M48
; DRILL file {KiCad 6.0.4} date Sun 03 Apr 2022 08:08:50 PM CEST
; FORMAT={-:-/ absolute / inch / decimal}
; #@! TF.CreationDate,2022-04-03T20:08:50+02:00
; #@! TF.GenerationSoftware,Kicad,Pcbnew,6.0.4
; #@! TF.FileFunction,Plated,1,2,PTH
FMAT,2
INCH
; #@! TA.AperFunction,Plated,PTH,ComponentDrill
T1C0.0118
; #@! TA.AperFunction,Plated,PTH,ComponentDrill
T2C0.0430
; #@! TA.AperFunction,Plated,PTH,ComponentDrill
T3C0.0500
%
G90
G05
T1
X7.5531Y-2.5531
X7.6319Y-2.5531
T2
X7.3319Y-2.4756
X7.3319Y-2.5756
X7.3319Y-2.6756
X7.3319Y-2.7756
X7.3319Y-2.8756
X7.3319Y-2.9756
X7.3319Y-3.0756
X7.3319Y-3.1756
X7.3319Y-3.2756
X7.3319Y-3.3756
X7.3319Y-3.4756
X7.3319Y-3.5756
X7.5681Y-3.6949
X7.6957Y-3.6949
X7.9319Y-2.4756
X7.9319Y-2.5756
X7.9319Y-2.6756
X7.9319Y-2.7756
X7.9319Y-2.8756
X7.9319Y-2.9756
X7.9319Y-3.0756
X7.9319Y-3.1756
X7.9319Y-3.2756
X7.9319Y-3.3756
X7.9319Y-3.4756
X7.9319Y-3.5756
T3
X3.813Y-3.2146
X3.813Y-3.8839
X3.813Y-4.5531
X4.0098Y-3.2972
X4.0098Y-3.2972
X4.0098Y-3.9665
X4.0098Y-3.9665
X4.0098Y-4.6358
X4.0098Y-4.6358
X4.2067Y-3.2146
X4.2067Y-3.8839
X4.2067Y-4.5531
X4.5217Y-2.8209
X4.5217Y-3.4902
X4.5217Y-4.1594
X4.7185Y-2.9035
X4.7185Y-2.9035
X4.7185Y-3.5728
X4.7185Y-3.5728
X4.7185Y-4.2421
X4.7185Y-4.2421
X4.9154Y-2.8209
X4.9154Y-3.4902
X4.9154Y-4.1594
X5.2303Y-2.5453
X5.2303Y-3.2146
X5.2303Y-3.8839
X5.4272Y-2.628
X5.4272Y-2.628
X5.4272Y-3.2972
X5.4272Y-3.2972
X5.4272Y-3.9665
X5.4272Y-3.9665
X5.624Y-2.5453
X5.624Y-3.2146
X5.624Y-3.8839
X5.939Y-2.8209
X5.939Y-3.4902
X5.939Y-4.1594
X6.1358Y-2.9035
X6.1358Y-2.9035
X6.1358Y-3.5728
X6.1358Y-3.5728
X6.1358Y-4.2421
X6.1358Y-4.2421
X6.3327Y-2.8209
X6.3327Y-3.4902
X6.3327Y-4.1594
X6.4508Y-4.9469
X6.6476Y-2.8209
X6.6476Y-3.4902
X6.6476Y-4.1594
X6.6476Y-5.0295
X6.6476Y-5.0295
X6.8445Y-2.9035
X6.8445Y-2.9035
X6.8445Y-3.5728
X6.8445Y-3.5728
X6.8445Y-4.2421
X6.8445Y-4.2421
X6.8445Y-4.9469
X7.0413Y-2.8209
X7.0413Y-3.4902
X7.0413Y-4.1594
X7.4026Y-5.4984
X7.6002Y-5.4177
X7.6002Y-5.4177
X7.681Y-5.2201
T0
M30
