%TF.GenerationSoftware,KiCad,Pcbnew,6.0.4*%
%TF.CreationDate,2022-04-03T20:08:53+02:00*%
%TF.ProjectId,lbd,6c62642e-6b69-4636-9164-5f7063625858,v1.0.0*%
%TF.SameCoordinates,Original*%
%TF.FileFunction,Paste,Bot*%
%TF.FilePolarity,Positive*%
%FSLAX46Y46*%
G04 Gerber Fmt 4.6, Leading zero omitted, Abs format (unit mm)*
G04 Created by KiCad (PCBNEW 6.0.4) date 2022-04-03 20:08:53*
%MOMM*%
%LPD*%
G01*
G04 APERTURE LIST*
G04 Aperture macros list*
%AMRotRect*
0 Rectangle, with rotation*
0 The origin of the aperture is its center*
0 $1 length*
0 $2 width*
0 $3 Rotation angle, in degrees counterclockwise*
0 Add horizontal line*
21,1,$1,$2,0,0,$3*%
G04 Aperture macros list end*
%ADD10R,2.600000X2.600000*%
%ADD11RotRect,2.600000X2.600000X45.000000*%
%ADD12R,1.000000X0.800000*%
%ADD13R,0.700000X1.500000*%
G04 APERTURE END LIST*
D10*
%TO.C,S13*%
X134575000Y-88900000D03*
X146125000Y-91100000D03*
%TD*%
%TO.C,S31*%
X165575000Y-115900000D03*
X177125000Y-118100000D03*
%TD*%
%TO.C,S17*%
X134575000Y-54900000D03*
X146125000Y-57100000D03*
%TD*%
D11*
%TO.C,S33*%
X182351352Y-131546357D03*
X192074070Y-124934909D03*
%TD*%
D10*
%TO.C,S3*%
X98575000Y-88900000D03*
X110125000Y-91100000D03*
%TD*%
%TO.C,S1*%
X98575000Y-105900000D03*
X110125000Y-108100000D03*
%TD*%
%TO.C,S21*%
X152575000Y-78900000D03*
X164125000Y-81100000D03*
%TD*%
%TO.C,S19*%
X152575000Y-95900000D03*
X164125000Y-98100000D03*
%TD*%
%TO.C,S29*%
X170575000Y-61900000D03*
X182125000Y-64100000D03*
%TD*%
%TO.C,S23*%
X152575000Y-61900000D03*
X164125000Y-64100000D03*
%TD*%
%TO.C,S9*%
X116575000Y-78900000D03*
X128125000Y-81100000D03*
%TD*%
%TO.C,S11*%
X116575000Y-61900000D03*
X128125000Y-64100000D03*
%TD*%
D12*
%TO.C,*%
X188200000Y-58920000D03*
X195500000Y-58920000D03*
X195500000Y-61130000D03*
X188200000Y-61130000D03*
D13*
X189600000Y-61780000D03*
X192600000Y-61780000D03*
X194100000Y-61780000D03*
%TD*%
D10*
%TO.C,S27*%
X170575000Y-78900000D03*
X182125000Y-81100000D03*
%TD*%
%TO.C,S5*%
X98575000Y-71900000D03*
X110125000Y-74100000D03*
%TD*%
%TO.C,S7*%
X116575000Y-95900000D03*
X128125000Y-98100000D03*
%TD*%
%TO.C,S25*%
X170575000Y-95900000D03*
X182125000Y-98100000D03*
%TD*%
%TO.C,S15*%
X134575000Y-71900000D03*
X146125000Y-74100000D03*
%TD*%
M02*
