%TF.GenerationSoftware,KiCad,Pcbnew,6.0.4*%
%TF.CreationDate,2022-04-03T20:08:53+02:00*%
%TF.ProjectId,lbd,6c62642e-6b69-4636-9164-5f7063625858,v1.0.0*%
%TF.SameCoordinates,Original*%
%TF.FileFunction,Copper,L2,Bot*%
%TF.FilePolarity,Positive*%
%FSLAX46Y46*%
G04 Gerber Fmt 4.6, Leading zero omitted, Abs format (unit mm)*
G04 Created by KiCad (PCBNEW 6.0.4) date 2022-04-03 20:08:53*
%MOMM*%
%LPD*%
G01*
G04 APERTURE LIST*
G04 Aperture macros list*
%AMRotRect*
0 Rectangle, with rotation*
0 The origin of the aperture is its center*
0 $1 length*
0 $2 width*
0 $3 Rotation angle, in degrees counterclockwise*
0 Add horizontal line*
21,1,$1,$2,0,0,$3*%
G04 Aperture macros list end*
%TA.AperFunction,ComponentPad*%
%ADD10C,1.752600*%
%TD*%
%TA.AperFunction,ComponentPad*%
%ADD11C,2.032000*%
%TD*%
%TA.AperFunction,SMDPad,CuDef*%
%ADD12R,2.600000X2.600000*%
%TD*%
%TA.AperFunction,ComponentPad*%
%ADD13C,0.600000*%
%TD*%
%TA.AperFunction,SMDPad,CuDef*%
%ADD14RotRect,2.600000X2.600000X45.000000*%
%TD*%
%TA.AperFunction,SMDPad,CuDef*%
%ADD15R,1.000000X0.800000*%
%TD*%
%TA.AperFunction,SMDPad,CuDef*%
%ADD16R,0.700000X1.500000*%
%TD*%
%TA.AperFunction,ComponentPad*%
%ADD17R,1.752600X1.752600*%
%TD*%
%TA.AperFunction,Conductor*%
%ADD18C,0.250000*%
%TD*%
G04 APERTURE END LIST*
D10*
%TO.P,,1*%
%TO.N,pos*%
X195470000Y-93850000D03*
%TO.P,,2*%
%TO.N,GND*%
X192230000Y-93850000D03*
%TD*%
D11*
%TO.P,S22,1*%
%TO.N,P14*%
X160850000Y-88650000D03*
X150850000Y-88650000D03*
%TO.P,S22,2*%
%TO.N,GND*%
X155850000Y-90750000D03*
X155850000Y-90750000D03*
%TD*%
%TO.P,S30,1*%
%TO.N,P21*%
X178850000Y-71650000D03*
X168850000Y-71650000D03*
%TO.P,S30,2*%
%TO.N,GND*%
X173850000Y-73750000D03*
X173850000Y-73750000D03*
%TD*%
%TO.P,S10,1*%
%TO.N,P3*%
X114850000Y-88650000D03*
X124850000Y-88650000D03*
%TO.P,S10,2*%
%TO.N,GND*%
X119850000Y-90750000D03*
X119850000Y-90750000D03*
%TD*%
%TO.P,S6,1*%
%TO.N,P10*%
X96850000Y-81650000D03*
X106850000Y-81650000D03*
%TO.P,S6,2*%
%TO.N,GND*%
X101850000Y-83750000D03*
X101850000Y-83750000D03*
%TD*%
D12*
%TO.P,S13,1*%
%TO.N,P7*%
X134575000Y-88900000D03*
%TO.P,S13,2*%
%TO.N,GND*%
X146125000Y-91100000D03*
%TD*%
D13*
%TO.P,REF\u002A\u002A,1*%
%TO.N,RAW*%
X191850000Y-64850000D03*
%TD*%
D12*
%TO.P,S31,1*%
%TO.N,P2*%
X165575000Y-115900000D03*
%TO.P,S31,2*%
%TO.N,GND*%
X177125000Y-118100000D03*
%TD*%
%TO.P,S17,1*%
%TO.N,P19*%
X134575000Y-54900000D03*
%TO.P,S17,2*%
%TO.N,GND*%
X146125000Y-57100000D03*
%TD*%
D14*
%TO.P,S33,1*%
%TO.N,P0*%
X182351352Y-131546357D03*
%TO.P,S33,2*%
%TO.N,GND*%
X192074070Y-124934909D03*
%TD*%
D11*
%TO.P,S20,1*%
%TO.N,P6*%
X150850000Y-105650000D03*
X160850000Y-105650000D03*
%TO.P,S20,2*%
%TO.N,GND*%
X155850000Y-107750000D03*
X155850000Y-107750000D03*
%TD*%
D12*
%TO.P,S3,1*%
%TO.N,P4*%
X98575000Y-88900000D03*
%TO.P,S3,2*%
%TO.N,GND*%
X110125000Y-91100000D03*
%TD*%
%TO.P,S1,1*%
%TO.N,P9*%
X98575000Y-105900000D03*
%TO.P,S1,2*%
%TO.N,GND*%
X110125000Y-108100000D03*
%TD*%
%TO.P,S21,1*%
%TO.N,P14*%
X152575000Y-78900000D03*
%TO.P,S21,2*%
%TO.N,GND*%
X164125000Y-81100000D03*
%TD*%
D11*
%TO.P,S16,1*%
%TO.N,P16*%
X142850000Y-81650000D03*
X132850000Y-81650000D03*
%TO.P,S16,2*%
%TO.N,GND*%
X137850000Y-83750000D03*
X137850000Y-83750000D03*
%TD*%
D13*
%TO.P,REF\u002A\u002A,1*%
%TO.N,pos*%
X193850000Y-64850000D03*
%TD*%
D11*
%TO.P,S18,1*%
%TO.N,P19*%
X142850000Y-64650000D03*
X132850000Y-64650000D03*
%TO.P,S18,2*%
%TO.N,GND*%
X137850000Y-66750000D03*
X137850000Y-66750000D03*
%TD*%
D12*
%TO.P,S19,1*%
%TO.N,P6*%
X152575000Y-95900000D03*
%TO.P,S19,2*%
%TO.N,GND*%
X164125000Y-98100000D03*
%TD*%
%TO.P,S29,1*%
%TO.N,P21*%
X170575000Y-61900000D03*
%TO.P,S29,2*%
%TO.N,GND*%
X182125000Y-64100000D03*
%TD*%
%TO.P,S23,1*%
%TO.N,P20*%
X152575000Y-61900000D03*
%TO.P,S23,2*%
%TO.N,GND*%
X164125000Y-64100000D03*
%TD*%
D11*
%TO.P,S34,1*%
%TO.N,P0*%
X188025884Y-139660408D03*
X195096952Y-132589340D03*
%TO.P,S34,2*%
%TO.N,GND*%
X193046342Y-137609798D03*
X193046342Y-137609798D03*
%TD*%
D12*
%TO.P,S9,1*%
%TO.N,P3*%
X116575000Y-78900000D03*
%TO.P,S9,2*%
%TO.N,GND*%
X128125000Y-81100000D03*
%TD*%
%TO.P,S11,1*%
%TO.N,P18*%
X116575000Y-61900000D03*
%TO.P,S11,2*%
%TO.N,GND*%
X128125000Y-64100000D03*
%TD*%
D15*
%TO.P,,*%
%TO.N,*%
X188200000Y-58920000D03*
X195500000Y-58920000D03*
X195500000Y-61130000D03*
X188200000Y-61130000D03*
D16*
%TO.P,,1*%
%TO.N,pos*%
X189600000Y-61780000D03*
%TO.P,,2*%
%TO.N,RAW*%
X192600000Y-61780000D03*
%TO.P,,3*%
%TO.N,N/C*%
X194100000Y-61780000D03*
%TD*%
D11*
%TO.P,S4,1*%
%TO.N,P4*%
X106850000Y-98650000D03*
X96850000Y-98650000D03*
%TO.P,S4,2*%
%TO.N,GND*%
X101850000Y-100750000D03*
X101850000Y-100750000D03*
%TD*%
D12*
%TO.P,S27,1*%
%TO.N,P15*%
X170575000Y-78900000D03*
%TO.P,S27,2*%
%TO.N,GND*%
X182125000Y-81100000D03*
%TD*%
D11*
%TO.P,S12,1*%
%TO.N,P18*%
X114850000Y-71650000D03*
X124850000Y-71650000D03*
%TO.P,S12,2*%
%TO.N,GND*%
X119850000Y-73750000D03*
X119850000Y-73750000D03*
%TD*%
D12*
%TO.P,S5,1*%
%TO.N,P10*%
X98575000Y-71900000D03*
%TO.P,S5,2*%
%TO.N,GND*%
X110125000Y-74100000D03*
%TD*%
D11*
%TO.P,S2,1*%
%TO.N,P9*%
X106850000Y-115650000D03*
X96850000Y-115650000D03*
%TO.P,S2,2*%
%TO.N,GND*%
X101850000Y-117750000D03*
X101850000Y-117750000D03*
%TD*%
%TO.P,S26,1*%
%TO.N,P5*%
X168850000Y-105650000D03*
X178850000Y-105650000D03*
%TO.P,S26,2*%
%TO.N,GND*%
X173850000Y-107750000D03*
X173850000Y-107750000D03*
%TD*%
%TO.P,S14,1*%
%TO.N,P7*%
X142850000Y-98650000D03*
X132850000Y-98650000D03*
%TO.P,S14,2*%
%TO.N,GND*%
X137850000Y-100750000D03*
X137850000Y-100750000D03*
%TD*%
%TO.P,S8,1*%
%TO.N,P8*%
X114850000Y-105650000D03*
X124850000Y-105650000D03*
%TO.P,S8,2*%
%TO.N,GND*%
X119850000Y-107750000D03*
X119850000Y-107750000D03*
%TD*%
D17*
%TO.P,MCU1,1*%
%TO.N,RAW*%
X186230000Y-62880000D03*
D10*
%TO.P,MCU1,2*%
%TO.N,GND*%
X186230000Y-65420000D03*
%TO.P,MCU1,3*%
%TO.N,RST*%
X186230000Y-67960000D03*
%TO.P,MCU1,4*%
%TO.N,VCC*%
X186230000Y-70500000D03*
%TO.P,MCU1,5*%
%TO.N,P21*%
X186230000Y-73040000D03*
%TO.P,MCU1,6*%
%TO.N,P20*%
X186230000Y-75580000D03*
%TO.P,MCU1,7*%
%TO.N,P19*%
X186230000Y-78120000D03*
%TO.P,MCU1,8*%
%TO.N,P18*%
X186230000Y-80660000D03*
%TO.P,MCU1,9*%
%TO.N,P15*%
X186230000Y-83200000D03*
%TO.P,MCU1,10*%
%TO.N,P14*%
X186230000Y-85740000D03*
%TO.P,MCU1,11*%
%TO.N,P16*%
X186230000Y-88280000D03*
%TO.P,MCU1,12*%
%TO.N,P10*%
X186230000Y-90820000D03*
%TO.P,MCU1,13*%
%TO.N,P1*%
X201470000Y-62880000D03*
%TO.P,MCU1,14*%
%TO.N,P0*%
X201470000Y-65420000D03*
%TO.P,MCU1,15*%
%TO.N,GND*%
X201470000Y-67960000D03*
%TO.P,MCU1,16*%
X201470000Y-70500000D03*
%TO.P,MCU1,17*%
%TO.N,P2*%
X201470000Y-73040000D03*
%TO.P,MCU1,18*%
%TO.N,P3*%
X201470000Y-75580000D03*
%TO.P,MCU1,19*%
%TO.N,P4*%
X201470000Y-78120000D03*
%TO.P,MCU1,20*%
%TO.N,P5*%
X201470000Y-80660000D03*
%TO.P,MCU1,21*%
%TO.N,P6*%
X201470000Y-83200000D03*
%TO.P,MCU1,22*%
%TO.N,P7*%
X201470000Y-85740000D03*
%TO.P,MCU1,23*%
%TO.N,P8*%
X201470000Y-88280000D03*
%TO.P,MCU1,24*%
%TO.N,P9*%
X201470000Y-90820000D03*
%TD*%
D11*
%TO.P,S28,1*%
%TO.N,P15*%
X178850000Y-88650000D03*
X168850000Y-88650000D03*
%TO.P,S28,2*%
%TO.N,GND*%
X173850000Y-90750000D03*
X173850000Y-90750000D03*
%TD*%
%TO.P,S32,1*%
%TO.N,P2*%
X173850000Y-125650000D03*
X163850000Y-125650000D03*
%TO.P,S32,2*%
%TO.N,GND*%
X168850000Y-127750000D03*
X168850000Y-127750000D03*
%TD*%
D12*
%TO.P,S7,1*%
%TO.N,P8*%
X116575000Y-95900000D03*
%TO.P,S7,2*%
%TO.N,GND*%
X128125000Y-98100000D03*
%TD*%
%TO.P,S25,1*%
%TO.N,P5*%
X170575000Y-95900000D03*
%TO.P,S25,2*%
%TO.N,GND*%
X182125000Y-98100000D03*
%TD*%
D11*
%TO.P,S24,1*%
%TO.N,P20*%
X150850000Y-71650000D03*
X160850000Y-71650000D03*
%TO.P,S24,2*%
%TO.N,GND*%
X155850000Y-73750000D03*
X155850000Y-73750000D03*
%TD*%
D12*
%TO.P,S15,1*%
%TO.N,P16*%
X134575000Y-71900000D03*
%TO.P,S15,2*%
%TO.N,GND*%
X146125000Y-74100000D03*
%TD*%
D18*
%TO.N,P9*%
X98575000Y-105900000D02*
X98724521Y-106049521D01*
X98724521Y-106049521D02*
X98724521Y-113775479D01*
X98724521Y-113775479D02*
X96850000Y-115650000D01*
%TO.N,GND*%
X142645770Y-100750000D02*
X137850000Y-100750000D01*
X128125000Y-81100000D02*
X128125000Y-87270770D01*
X128125000Y-64100000D02*
X128125000Y-70270770D01*
X184910000Y-64100000D02*
X186230000Y-65420000D01*
X178645770Y-90750000D02*
X173850000Y-90750000D01*
X110125000Y-91100000D02*
X110125000Y-97270770D01*
X189206140Y-141450000D02*
X185200000Y-141450000D01*
X173850000Y-107750000D02*
X155850000Y-107750000D01*
X192230000Y-93850000D02*
X186375000Y-93850000D01*
X186375000Y-93850000D02*
X182125000Y-98100000D01*
X164125000Y-81100000D02*
X164125000Y-87270770D01*
X182125000Y-87270770D02*
X178645770Y-90750000D01*
X137850000Y-83750000D02*
X144054230Y-83750000D01*
X144850000Y-107750000D02*
X137850000Y-100750000D01*
X151054230Y-90750000D02*
X155850000Y-90750000D01*
X110125000Y-108100000D02*
X110125000Y-114270770D01*
X128125000Y-70270770D02*
X124645770Y-73750000D01*
X196437463Y-134218677D02*
X193046342Y-137609798D01*
X124645770Y-73750000D02*
X119850000Y-73750000D01*
X146125000Y-80270770D02*
X142645770Y-83750000D01*
X106645770Y-100750000D02*
X101850000Y-100750000D01*
X128125000Y-81100000D02*
X130775000Y-83750000D01*
X146125000Y-63270770D02*
X142645770Y-66750000D01*
X119500000Y-91100000D02*
X119850000Y-90750000D01*
X130775000Y-83750000D02*
X137850000Y-83750000D01*
X182125000Y-70270770D02*
X178645770Y-73750000D01*
X155850000Y-107750000D02*
X144850000Y-107750000D01*
X164125000Y-98100000D02*
X164125000Y-107475000D01*
X182125000Y-81100000D02*
X182125000Y-87270770D01*
X142645770Y-66750000D02*
X137850000Y-66750000D01*
X119500000Y-74100000D02*
X119850000Y-73750000D01*
X179447885Y-106947885D02*
X178645770Y-107750000D01*
X146125000Y-74100000D02*
X146125000Y-80270770D01*
X182125000Y-64100000D02*
X182125000Y-70270770D01*
X130775000Y-66750000D02*
X137850000Y-66750000D01*
X177125000Y-118100000D02*
X177125000Y-124270770D01*
X160645770Y-90750000D02*
X155850000Y-90750000D01*
X142645770Y-83750000D02*
X137850000Y-83750000D01*
X128125000Y-64100000D02*
X130775000Y-66750000D01*
X182125000Y-98100000D02*
X182125000Y-104270770D01*
X128125000Y-104270770D02*
X124645770Y-107750000D01*
X146125000Y-97270770D02*
X142645770Y-100750000D01*
X110125000Y-108100000D02*
X102775000Y-100750000D01*
X124645770Y-90750000D02*
X119850000Y-90750000D01*
X110475000Y-107750000D02*
X110125000Y-108100000D01*
X178645770Y-107750000D02*
X173850000Y-107750000D01*
X130850000Y-107750000D02*
X119850000Y-107750000D01*
X110125000Y-97270770D02*
X106645770Y-100750000D01*
X163850000Y-107750000D02*
X155850000Y-107750000D01*
X164125000Y-107475000D02*
X163850000Y-107750000D01*
X137850000Y-66750000D02*
X144054230Y-66750000D01*
X164125000Y-70275000D02*
X160650000Y-73750000D01*
X155850000Y-90750000D02*
X173850000Y-90750000D01*
X173645770Y-127750000D02*
X168850000Y-127750000D01*
X192074070Y-124934909D02*
X196437463Y-129298302D01*
X128125000Y-87270770D02*
X124645770Y-90750000D01*
X155850000Y-73750000D02*
X173850000Y-73750000D01*
X119850000Y-107750000D02*
X110475000Y-107750000D01*
X106645770Y-83750000D02*
X101850000Y-83750000D01*
X102775000Y-100750000D02*
X101850000Y-100750000D01*
X177125000Y-109270770D02*
X179447885Y-106947885D01*
X110125000Y-91100000D02*
X102775000Y-83750000D01*
X178645770Y-73750000D02*
X173850000Y-73750000D01*
X182125000Y-64100000D02*
X184910000Y-64100000D01*
X185200000Y-141450000D02*
X173645770Y-129895770D01*
X164125000Y-87270770D02*
X160645770Y-90750000D01*
X106645770Y-117750000D02*
X101850000Y-117750000D01*
X110125000Y-74100000D02*
X110125000Y-80270770D01*
X160650000Y-73750000D02*
X155850000Y-73750000D01*
X110125000Y-80270770D02*
X106645770Y-83750000D01*
X177125000Y-118100000D02*
X177125000Y-109270770D01*
X177125000Y-124270770D02*
X173645770Y-127750000D01*
X128125000Y-98100000D02*
X128125000Y-104270770D01*
X146125000Y-57100000D02*
X146125000Y-63270770D01*
X164125000Y-64100000D02*
X164125000Y-70275000D01*
X144054230Y-83750000D02*
X151054230Y-90750000D01*
X110125000Y-91100000D02*
X119500000Y-91100000D01*
X196437463Y-129298302D02*
X196437463Y-134218677D01*
X102775000Y-83750000D02*
X101850000Y-83750000D01*
X110125000Y-74100000D02*
X119500000Y-74100000D01*
X110125000Y-114270770D02*
X106645770Y-117750000D01*
X182125000Y-81100000D02*
X182125000Y-64100000D01*
X182125000Y-81100000D02*
X182125000Y-98100000D01*
X182125000Y-104270770D02*
X179447885Y-106947885D01*
X137850000Y-100750000D02*
X130850000Y-107750000D01*
X146125000Y-91100000D02*
X146125000Y-97270770D01*
X124645770Y-107750000D02*
X119850000Y-107750000D01*
X144054230Y-66750000D02*
X151054230Y-73750000D01*
X151054230Y-73750000D02*
X155850000Y-73750000D01*
X193046342Y-137609798D02*
X189206140Y-141450000D01*
X173645770Y-129895770D02*
X173645770Y-127750000D01*
%TO.N,P4*%
X98575000Y-88900000D02*
X98724521Y-89049521D01*
X98724521Y-89049521D02*
X98724521Y-96775479D01*
X98724521Y-96775479D02*
X96850000Y-98650000D01*
%TO.N,P10*%
X98724521Y-72049521D02*
X98724521Y-79775479D01*
X98724521Y-79775479D02*
X96850000Y-81650000D01*
X98575000Y-71900000D02*
X98724521Y-72049521D01*
%TO.N,P8*%
X116575000Y-95900000D02*
X116724521Y-96049521D01*
X116724521Y-96049521D02*
X116724521Y-103775479D01*
X116724521Y-103775479D02*
X114850000Y-105650000D01*
%TO.N,P3*%
X116724521Y-79049521D02*
X116724521Y-86775479D01*
X116724521Y-86775479D02*
X114850000Y-88650000D01*
X116575000Y-78900000D02*
X116724521Y-79049521D01*
%TO.N,P18*%
X116575000Y-61900000D02*
X116724521Y-62049521D01*
X116724521Y-62049521D02*
X116724521Y-69775479D01*
X116724521Y-69775479D02*
X114850000Y-71650000D01*
%TO.N,P7*%
X134724521Y-89049521D02*
X134724521Y-96775479D01*
X134724521Y-96775479D02*
X132850000Y-98650000D01*
X134575000Y-88900000D02*
X134724521Y-89049521D01*
%TO.N,P16*%
X134724521Y-72049521D02*
X134724521Y-79775479D01*
X134575000Y-71900000D02*
X134724521Y-72049521D01*
X134724521Y-79775479D02*
X132850000Y-81650000D01*
%TO.N,P19*%
X134724521Y-55049521D02*
X134724521Y-62775479D01*
X134724521Y-62775479D02*
X132850000Y-64650000D01*
X134575000Y-54900000D02*
X134724521Y-55049521D01*
%TO.N,P6*%
X152575000Y-95900000D02*
X152724521Y-96049521D01*
X152724521Y-103775479D02*
X150850000Y-105650000D01*
X152724521Y-96049521D02*
X152724521Y-103775479D01*
%TO.N,P14*%
X152724521Y-79049521D02*
X152724521Y-86775479D01*
X152724521Y-86775479D02*
X150850000Y-88650000D01*
X152575000Y-78900000D02*
X152724521Y-79049521D01*
%TO.N,P20*%
X152724521Y-69775479D02*
X150850000Y-71650000D01*
X152724521Y-62049521D02*
X152724521Y-69775479D01*
X152575000Y-61900000D02*
X152724521Y-62049521D01*
%TO.N,P5*%
X170724521Y-103775479D02*
X168850000Y-105650000D01*
X170575000Y-95900000D02*
X170724521Y-96049521D01*
X170724521Y-96049521D02*
X170724521Y-103775479D01*
%TO.N,P15*%
X170724521Y-79049521D02*
X170724521Y-86775479D01*
X170575000Y-78900000D02*
X170724521Y-79049521D01*
X170724521Y-86775479D02*
X168850000Y-88650000D01*
%TO.N,P21*%
X170575000Y-61900000D02*
X170724521Y-62049521D01*
X170724521Y-62049521D02*
X170724521Y-69775479D01*
X170724521Y-69775479D02*
X168850000Y-71650000D01*
%TO.N,P2*%
X165724521Y-123775479D02*
X163850000Y-125650000D01*
X165724521Y-116049521D02*
X165724521Y-123775479D01*
X165575000Y-115900000D02*
X165724521Y-116049521D01*
%TO.N,P0*%
X188025884Y-137009433D02*
X188025884Y-139660408D01*
X182351352Y-131546357D02*
X182562808Y-131546357D01*
X182562808Y-131546357D02*
X188025884Y-137009433D01*
X195096952Y-132589340D02*
X188025884Y-139660408D01*
%TO.N,RAW*%
X192600000Y-64100000D02*
X191850000Y-64850000D01*
X192600000Y-61780000D02*
X192600000Y-64100000D01*
%TO.N,pos*%
X189600000Y-61780000D02*
X189600000Y-63483193D01*
X193850000Y-64850000D02*
X193850000Y-92230000D01*
X193225489Y-65474511D02*
X193850000Y-64850000D01*
X191591318Y-65474511D02*
X193225489Y-65474511D01*
X189600000Y-63483193D02*
X191591318Y-65474511D01*
X193850000Y-92230000D02*
X195470000Y-93850000D01*
%TD*%
M02*
