%TF.GenerationSoftware,KiCad,Pcbnew,6.0.4*%
%TF.CreationDate,2022-04-03T20:08:53+02:00*%
%TF.ProjectId,lbd,6c62642e-6b69-4636-9164-5f7063625858,v1.0.0*%
%TF.SameCoordinates,Original*%
%TF.FileFunction,Legend,Bot*%
%TF.FilePolarity,Positive*%
%FSLAX46Y46*%
G04 Gerber Fmt 4.6, Leading zero omitted, Abs format (unit mm)*
G04 Created by KiCad (PCBNEW 6.0.4) date 2022-04-03 20:08:53*
%MOMM*%
%LPD*%
G01*
G04 APERTURE LIST*
%ADD10C,1.752600*%
%ADD11R,1.752600X1.752600*%
G04 APERTURE END LIST*
%TO.C,G\u002A\u002A\u002A*%
G36*
X191584423Y-119552990D02*
G01*
X191211193Y-119552486D01*
X190916484Y-119548582D01*
X190681148Y-119539979D01*
X190486037Y-119525376D01*
X190312002Y-119503472D01*
X190139894Y-119472966D01*
X190012143Y-119446199D01*
X189190067Y-119218781D01*
X188414324Y-118908268D01*
X187689562Y-118519203D01*
X187020430Y-118056128D01*
X186411575Y-117523586D01*
X185867648Y-116926120D01*
X185393295Y-116268273D01*
X184993166Y-115554587D01*
X184671909Y-114789604D01*
X184439467Y-114000413D01*
X184394583Y-113802879D01*
X184361396Y-113630482D01*
X184338178Y-113462483D01*
X184323203Y-113278145D01*
X184314744Y-113056729D01*
X184311075Y-112777498D01*
X184310446Y-112450769D01*
X184310992Y-112189649D01*
X184313266Y-111966369D01*
X184318743Y-111766581D01*
X184328896Y-111575935D01*
X184345200Y-111380082D01*
X184369128Y-111164674D01*
X184402155Y-110915360D01*
X184445754Y-110617792D01*
X184501400Y-110257620D01*
X184570567Y-109820496D01*
X184598967Y-109642115D01*
X184675149Y-109160727D01*
X184736719Y-108762049D01*
X184785214Y-108432442D01*
X184822169Y-108158267D01*
X184849120Y-107925886D01*
X184867603Y-107721660D01*
X184879155Y-107531951D01*
X184885311Y-107343119D01*
X184887607Y-107141527D01*
X184887771Y-107077692D01*
X184881535Y-106693442D01*
X184858317Y-106359775D01*
X184812828Y-106050512D01*
X184739778Y-105739472D01*
X184633879Y-105400476D01*
X184489841Y-105007344D01*
X184447382Y-104897864D01*
X184320113Y-104556839D01*
X184214794Y-104234790D01*
X184129706Y-103918166D01*
X184063125Y-103593419D01*
X184013331Y-103246998D01*
X183978600Y-102865354D01*
X183957212Y-102434938D01*
X183947445Y-101942199D01*
X183947577Y-101373589D01*
X183951430Y-101013157D01*
X185510252Y-101013157D01*
X185516866Y-101515183D01*
X185518063Y-101582500D01*
X185528291Y-102068558D01*
X185541249Y-102472559D01*
X185559353Y-102810136D01*
X185585015Y-103096924D01*
X185620652Y-103348557D01*
X185668676Y-103580668D01*
X185731503Y-103808892D01*
X185811547Y-104048864D01*
X185911222Y-104316217D01*
X185959351Y-104440000D01*
X186111234Y-104847360D01*
X186236107Y-105231924D01*
X186334397Y-105604974D01*
X186406527Y-105977797D01*
X186452922Y-106361674D01*
X186474006Y-106767891D01*
X186470205Y-107207732D01*
X186441942Y-107692480D01*
X186389644Y-108233420D01*
X186313733Y-108841836D01*
X186214635Y-109529012D01*
X186163374Y-109861923D01*
X186069355Y-110476611D01*
X185993422Y-111006104D01*
X185934791Y-111461062D01*
X185892676Y-111852142D01*
X185866295Y-112190003D01*
X185854862Y-112485304D01*
X185857593Y-112748702D01*
X185873704Y-112990857D01*
X185902411Y-113222426D01*
X185911737Y-113281580D01*
X186074736Y-114005036D01*
X186319075Y-114675842D01*
X186647585Y-115299488D01*
X187063098Y-115881465D01*
X187499216Y-116359791D01*
X188060248Y-116854063D01*
X188654164Y-117258046D01*
X189285694Y-117573806D01*
X189959569Y-117803409D01*
X190680522Y-117948919D01*
X191266923Y-118004756D01*
X191589877Y-118015301D01*
X191897697Y-118009350D01*
X192202202Y-117984060D01*
X192515209Y-117936586D01*
X192848539Y-117864085D01*
X193214009Y-117763711D01*
X193623439Y-117632621D01*
X194088647Y-117467971D01*
X194621452Y-117266915D01*
X195082874Y-117086430D01*
X196676324Y-116456154D01*
X200410923Y-116456154D01*
X200577000Y-116290077D01*
X200708545Y-116114973D01*
X200747087Y-115942968D01*
X200691584Y-115770925D01*
X200540988Y-115595712D01*
X200294256Y-115414194D01*
X200282508Y-115406842D01*
X199949601Y-115214542D01*
X199555286Y-115010451D01*
X199131927Y-114809661D01*
X198711886Y-114627263D01*
X198327526Y-114478349D01*
X198190925Y-114431508D01*
X197481010Y-114226989D01*
X196783352Y-114084823D01*
X196070869Y-114001336D01*
X196053846Y-114000693D01*
X195316481Y-113972857D01*
X194858980Y-113979778D01*
X194465919Y-113997247D01*
X194106018Y-114025528D01*
X193760927Y-114068162D01*
X193412295Y-114128686D01*
X193041771Y-114210642D01*
X192631004Y-114317569D01*
X192161643Y-114453006D01*
X191742460Y-114580902D01*
X191349260Y-114700323D01*
X191035532Y-114788311D01*
X190788745Y-114846287D01*
X190596368Y-114875672D01*
X190445871Y-114877887D01*
X190324723Y-114854351D01*
X190220393Y-114806487D01*
X190153111Y-114761103D01*
X189968473Y-114591138D01*
X189864956Y-114404725D01*
X189827041Y-114171099D01*
X189825961Y-114112491D01*
X189834147Y-113932017D01*
X189868150Y-113803732D01*
X189942139Y-113682830D01*
X189975427Y-113639823D01*
X190046290Y-113559375D01*
X190126249Y-113493898D01*
X190234042Y-113433806D01*
X190388408Y-113369516D01*
X190608086Y-113291445D01*
X190750046Y-113243656D01*
X191496372Y-113004084D01*
X192163630Y-112809377D01*
X192749328Y-112660232D01*
X193107109Y-112583766D01*
X193652871Y-112478221D01*
X193687822Y-112012668D01*
X193706303Y-111447520D01*
X193684771Y-110824990D01*
X193626315Y-110175369D01*
X193534025Y-109528946D01*
X193410990Y-108916011D01*
X193345508Y-108655825D01*
X193264903Y-108377544D01*
X193176184Y-108104456D01*
X193085812Y-107853277D01*
X193000244Y-107640724D01*
X192925939Y-107483512D01*
X192869354Y-107398357D01*
X192856090Y-107389073D01*
X192765026Y-107390890D01*
X192602511Y-107430858D01*
X192384299Y-107503094D01*
X192126143Y-107601714D01*
X191843799Y-107720836D01*
X191553019Y-107854575D01*
X191376971Y-107941461D01*
X191064355Y-108092785D01*
X190820825Y-108194535D01*
X190651327Y-108244744D01*
X190601394Y-108250000D01*
X190340155Y-108207962D01*
X190122274Y-108093042D01*
X189955570Y-107922035D01*
X189847859Y-107711736D01*
X189806959Y-107478938D01*
X189840688Y-107240436D01*
X189904990Y-107114567D01*
X194508331Y-107114567D01*
X194509503Y-107148193D01*
X194514445Y-107161461D01*
X194677247Y-107607520D01*
X194833699Y-108122650D01*
X194976057Y-108678238D01*
X195096574Y-109245673D01*
X195133017Y-109446731D01*
X195171601Y-109699864D01*
X195201556Y-109969398D01*
X195224204Y-110274297D01*
X195240868Y-110633522D01*
X195252868Y-111066034D01*
X195255616Y-111205192D01*
X195277107Y-112377500D01*
X195665476Y-112391687D01*
X196053846Y-112405874D01*
X196051237Y-112269572D01*
X196045924Y-112195529D01*
X196031645Y-112034004D01*
X196009341Y-111794705D01*
X195979948Y-111487337D01*
X195944407Y-111121609D01*
X195903656Y-110707227D01*
X195858633Y-110253899D01*
X195810277Y-109771331D01*
X195794795Y-109617692D01*
X195540961Y-107102115D01*
X195009982Y-107088192D01*
X194777297Y-107083198D01*
X194626568Y-107084385D01*
X194542133Y-107094070D01*
X194508331Y-107114567D01*
X189904990Y-107114567D01*
X189956864Y-107013024D01*
X190000452Y-106959021D01*
X190110021Y-106866538D01*
X190293190Y-106747545D01*
X190532514Y-106610957D01*
X190810549Y-106465686D01*
X191109850Y-106320646D01*
X191412972Y-106184748D01*
X191702472Y-106066908D01*
X191856918Y-106010467D01*
X192609547Y-105790740D01*
X193414180Y-105631969D01*
X194243095Y-105538652D01*
X194916248Y-105514132D01*
X195733562Y-105492849D01*
X196601692Y-105432725D01*
X197483475Y-105337392D01*
X198341750Y-105210479D01*
X198715961Y-105142967D01*
X199057825Y-105073703D01*
X199410464Y-104995669D01*
X199759327Y-104912731D01*
X200089865Y-104828759D01*
X200387528Y-104747619D01*
X200637766Y-104673180D01*
X200826030Y-104609309D01*
X200937768Y-104559875D01*
X200954955Y-104547766D01*
X201086930Y-104372797D01*
X201125048Y-104175149D01*
X201067451Y-103964999D01*
X201062880Y-103955993D01*
X201006613Y-103866434D01*
X200934648Y-103801254D01*
X200833144Y-103758046D01*
X200688265Y-103734406D01*
X200486172Y-103727928D01*
X200213025Y-103736207D01*
X199900426Y-103753944D01*
X199265077Y-103780606D01*
X198639805Y-103777986D01*
X198009648Y-103744345D01*
X197359644Y-103677941D01*
X196674830Y-103577034D01*
X195940246Y-103439881D01*
X195140929Y-103264741D01*
X194618094Y-103139232D01*
X194341221Y-103071710D01*
X194099330Y-103014284D01*
X193907424Y-102970388D01*
X193780508Y-102943454D01*
X193733630Y-102936842D01*
X193708378Y-102983264D01*
X193649073Y-103097075D01*
X193565934Y-103258578D01*
X193511307Y-103365385D01*
X193281918Y-103736975D01*
X192987729Y-104094487D01*
X192652421Y-104413658D01*
X192299676Y-104670229D01*
X192160831Y-104748946D01*
X191650139Y-104960134D01*
X191105930Y-105087475D01*
X190544810Y-105130972D01*
X190535258Y-105130286D01*
X189983385Y-105090623D01*
X189438261Y-104966430D01*
X188926044Y-104758391D01*
X188907630Y-104748925D01*
X188673996Y-104602300D01*
X188405901Y-104392837D01*
X188122301Y-104139494D01*
X187842154Y-103861228D01*
X187584416Y-103576996D01*
X187368044Y-103305755D01*
X187211996Y-103066461D01*
X187196844Y-103038139D01*
X186986370Y-102530757D01*
X186860520Y-101993389D01*
X186821764Y-101444821D01*
X186872574Y-100903841D01*
X186899107Y-100773970D01*
X186938759Y-100580437D01*
X186951868Y-100433769D01*
X186938435Y-100286813D01*
X186899107Y-100095261D01*
X186827665Y-99579559D01*
X186832667Y-99346974D01*
X188411462Y-99346974D01*
X188411520Y-99360000D01*
X188420642Y-99612570D01*
X188449036Y-99804075D01*
X188502710Y-99970236D01*
X188521423Y-100013421D01*
X188612241Y-100298972D01*
X188612997Y-100571847D01*
X188523749Y-100857086D01*
X188523353Y-100857970D01*
X188461679Y-101029670D01*
X188427161Y-101223793D01*
X188413879Y-101475427D01*
X188413449Y-101509231D01*
X188427200Y-101807222D01*
X188481488Y-102064673D01*
X188586402Y-102302716D01*
X188752031Y-102542484D01*
X188988465Y-102805111D01*
X189072190Y-102889034D01*
X189335469Y-103134435D01*
X189565832Y-103310771D01*
X189787033Y-103428553D01*
X190022829Y-103498292D01*
X190296975Y-103530497D01*
X190535258Y-103536346D01*
X190772696Y-103534272D01*
X190942704Y-103524188D01*
X191075520Y-103500301D01*
X191201382Y-103456818D01*
X191350526Y-103387945D01*
X191376576Y-103375164D01*
X191542938Y-103285062D01*
X191685652Y-103184821D01*
X191814991Y-103061323D01*
X191941230Y-102901448D01*
X192074641Y-102692080D01*
X192225498Y-102420098D01*
X192404075Y-102072384D01*
X192417042Y-102046539D01*
X192580403Y-101718716D01*
X192704583Y-101460416D01*
X192794693Y-101254084D01*
X192855842Y-101082167D01*
X192893140Y-100927112D01*
X192911698Y-100771365D01*
X192916624Y-100597373D01*
X192913030Y-100387582D01*
X192911924Y-100346533D01*
X192896783Y-99794412D01*
X192451701Y-98902608D01*
X192261966Y-98531083D01*
X192099840Y-98237026D01*
X191955342Y-98007737D01*
X191818492Y-97830514D01*
X191679310Y-97692655D01*
X191527815Y-97581459D01*
X191354027Y-97484223D01*
X191326481Y-97470575D01*
X191189941Y-97408735D01*
X191066187Y-97369196D01*
X190926277Y-97346977D01*
X190741268Y-97337099D01*
X190536948Y-97334719D01*
X190296173Y-97336240D01*
X190124091Y-97346136D01*
X189991763Y-97369365D01*
X189870248Y-97410886D01*
X189739243Y-97471410D01*
X189517539Y-97608849D01*
X189271275Y-97807431D01*
X189024212Y-98043394D01*
X188800112Y-98292978D01*
X188622736Y-98532420D01*
X188547948Y-98662705D01*
X188476442Y-98822382D01*
X188434776Y-98964521D01*
X188415574Y-99126819D01*
X188411462Y-99346974D01*
X186832667Y-99346974D01*
X186839067Y-99049392D01*
X186930373Y-98528536D01*
X187098638Y-98040767D01*
X187172378Y-97887605D01*
X187254786Y-97728487D01*
X187319062Y-97602697D01*
X187352040Y-97536016D01*
X187352779Y-97534359D01*
X187322972Y-97534094D01*
X187227081Y-97572668D01*
X187084713Y-97642009D01*
X187060053Y-97654831D01*
X186752083Y-97853709D01*
X186443166Y-98119178D01*
X186159571Y-98424262D01*
X185927569Y-98741987D01*
X185827513Y-98920385D01*
X185738010Y-99114190D01*
X185665718Y-99301820D01*
X185609152Y-99496046D01*
X185566827Y-99709641D01*
X185537260Y-99955377D01*
X185518965Y-100246026D01*
X185510457Y-100594363D01*
X185510252Y-101013157D01*
X183951430Y-101013157D01*
X183951610Y-100996346D01*
X183959617Y-100504667D01*
X183970635Y-100096627D01*
X183987070Y-99758175D01*
X184011325Y-99475261D01*
X184045804Y-99233832D01*
X184092911Y-99019838D01*
X184155050Y-98819228D01*
X184234626Y-98617950D01*
X184334041Y-98401953D01*
X184427964Y-98212115D01*
X184766405Y-97640895D01*
X185171080Y-97141317D01*
X185643691Y-96711676D01*
X186185944Y-96350268D01*
X186406731Y-96232414D01*
X186631481Y-96121423D01*
X186830114Y-96029896D01*
X187015098Y-95955951D01*
X187198904Y-95897704D01*
X187394000Y-95853272D01*
X187612854Y-95820772D01*
X187867938Y-95798322D01*
X188171718Y-95784039D01*
X188536665Y-95776038D01*
X188975248Y-95772438D01*
X189459615Y-95771390D01*
X189971042Y-95771917D01*
X190392902Y-95774660D01*
X190733305Y-95779875D01*
X191000356Y-95787814D01*
X191202164Y-95798734D01*
X191346835Y-95812889D01*
X191442476Y-95830534D01*
X191455047Y-95834082D01*
X191603002Y-95870226D01*
X191713029Y-95865643D01*
X191837058Y-95817936D01*
X191840520Y-95816297D01*
X192085517Y-95748562D01*
X192326901Y-95768196D01*
X192548777Y-95865652D01*
X192735252Y-96031380D01*
X192870433Y-96255833D01*
X192930989Y-96471408D01*
X192986933Y-96673941D01*
X193098397Y-96872552D01*
X193175631Y-96975892D01*
X193282349Y-97130626D01*
X193416462Y-97355931D01*
X193569181Y-97633860D01*
X193731723Y-97946466D01*
X193895300Y-98275805D01*
X194051126Y-98603929D01*
X194190415Y-98912893D01*
X194304382Y-99184751D01*
X194384241Y-99401558D01*
X194413800Y-99504915D01*
X194447624Y-99713933D01*
X194471847Y-99984181D01*
X194485993Y-100287823D01*
X194489585Y-100597025D01*
X194482147Y-100883953D01*
X194463204Y-101120773D01*
X194443457Y-101239206D01*
X194419018Y-101364190D01*
X194412541Y-101441049D01*
X194415146Y-101449890D01*
X194471492Y-101473714D01*
X194586125Y-101507483D01*
X194725838Y-101543046D01*
X194857422Y-101572250D01*
X194947670Y-101586943D01*
X194967979Y-101585611D01*
X194966661Y-101535041D01*
X194956281Y-101396399D01*
X194937683Y-101178800D01*
X194911709Y-100891361D01*
X194879204Y-100543197D01*
X194841011Y-100143426D01*
X194797972Y-99701162D01*
X194750933Y-99225523D01*
X194733016Y-99046228D01*
X194682671Y-98534456D01*
X194637302Y-98054788D01*
X194597655Y-97616326D01*
X194564478Y-97228172D01*
X194538517Y-96899426D01*
X194520518Y-96639191D01*
X194511228Y-96456568D01*
X194511393Y-96360658D01*
X194512254Y-96354443D01*
X194586518Y-96172423D01*
X194724585Y-95995098D01*
X194897650Y-95851687D01*
X195076909Y-95771412D01*
X195089577Y-95768793D01*
X195368502Y-95760755D01*
X195624615Y-95837310D01*
X195838867Y-95989634D01*
X195978184Y-96180373D01*
X196003560Y-96268375D01*
X196034941Y-96438585D01*
X196070132Y-96675866D01*
X196106941Y-96965079D01*
X196143171Y-97291085D01*
X196152574Y-97383497D01*
X196185096Y-97697292D01*
X196216509Y-97977981D01*
X196245007Y-98211106D01*
X196268779Y-98382212D01*
X196286018Y-98476840D01*
X196291048Y-98490503D01*
X196349966Y-98513987D01*
X196490597Y-98553350D01*
X196698830Y-98605472D01*
X196960550Y-98667234D01*
X197261645Y-98735515D01*
X197588001Y-98807195D01*
X197925505Y-98879155D01*
X198260044Y-98948275D01*
X198577505Y-99011435D01*
X198863774Y-99065515D01*
X199009038Y-99091334D01*
X199333045Y-99142715D01*
X199688040Y-99191681D01*
X200033095Y-99232992D01*
X200327277Y-99261407D01*
X200352308Y-99263336D01*
X200607146Y-99285619D01*
X200845048Y-99312178D01*
X201038814Y-99339622D01*
X201158269Y-99363718D01*
X201385577Y-99447129D01*
X201642870Y-99571873D01*
X201894072Y-99717979D01*
X202103110Y-99865472D01*
X202171329Y-99924613D01*
X202318685Y-100074784D01*
X202449855Y-100226820D01*
X202548123Y-100359538D01*
X202596771Y-100451758D01*
X202599231Y-100466796D01*
X202557535Y-100503286D01*
X202442468Y-100573018D01*
X202269057Y-100667654D01*
X202052333Y-100778853D01*
X201913974Y-100847037D01*
X201652061Y-100973055D01*
X201463050Y-101059835D01*
X201332646Y-101112192D01*
X201246557Y-101134941D01*
X201190487Y-101132898D01*
X201150144Y-101110879D01*
X201144647Y-101106223D01*
X201014322Y-101010159D01*
X200861845Y-100938702D01*
X200667861Y-100886485D01*
X200413014Y-100848145D01*
X200115900Y-100821091D01*
X199568938Y-100765426D01*
X198931790Y-100673238D01*
X198204331Y-100544507D01*
X197386433Y-100379212D01*
X197282537Y-100356991D01*
X197016354Y-100301284D01*
X196784985Y-100255785D01*
X196604599Y-100223438D01*
X196491365Y-100207186D01*
X196460277Y-100207287D01*
X196456606Y-100261777D01*
X196462691Y-100394113D01*
X196476624Y-100585150D01*
X196496497Y-100815739D01*
X196520404Y-101066733D01*
X196546438Y-101318987D01*
X196572691Y-101553352D01*
X196597255Y-101750682D01*
X196618225Y-101891830D01*
X196633691Y-101957648D01*
X196634794Y-101959274D01*
X196693071Y-101981238D01*
X196826424Y-102013355D01*
X197013384Y-102050853D01*
X197177966Y-102079990D01*
X197339784Y-102104267D01*
X197513757Y-102123818D01*
X197712394Y-102139143D01*
X197948203Y-102150742D01*
X198233691Y-102159114D01*
X198581367Y-102164759D01*
X199003739Y-102168175D01*
X199424231Y-102169686D01*
X199887418Y-102171080D01*
X200263620Y-102173356D01*
X200563545Y-102177034D01*
X200797899Y-102182634D01*
X200977389Y-102190678D01*
X201112721Y-102201684D01*
X201214603Y-102216174D01*
X201293742Y-102234669D01*
X201360845Y-102257688D01*
X201378077Y-102264659D01*
X201776335Y-102476100D01*
X202013077Y-102660233D01*
X202125532Y-102730317D01*
X202293771Y-102801300D01*
X202447177Y-102848464D01*
X202904149Y-103011618D01*
X203308735Y-103257200D01*
X203614315Y-103533943D01*
X203879516Y-103860096D01*
X204068613Y-104195853D01*
X204189312Y-104562008D01*
X204249316Y-104979360D01*
X204259420Y-105275373D01*
X204256752Y-105504639D01*
X204245061Y-105662215D01*
X204219832Y-105773999D01*
X204176552Y-105865889D01*
X204148934Y-105909210D01*
X203954192Y-106123909D01*
X203726878Y-106253750D01*
X203482794Y-106298336D01*
X203237741Y-106257266D01*
X203007521Y-106130143D01*
X202826627Y-105942585D01*
X202773694Y-105845804D01*
X202735514Y-105708273D01*
X202707370Y-105508604D01*
X202691973Y-105332008D01*
X202676192Y-105126468D01*
X202662569Y-104960077D01*
X202652977Y-104855133D01*
X202649892Y-104830769D01*
X202626417Y-104857703D01*
X202571052Y-104951731D01*
X202495697Y-105092624D01*
X202494346Y-105095240D01*
X202302757Y-105392030D01*
X202053453Y-105669056D01*
X201774511Y-105898224D01*
X201573461Y-106016672D01*
X201368993Y-106100019D01*
X201083224Y-106194040D01*
X200731493Y-106295104D01*
X200329139Y-106399580D01*
X199891500Y-106503836D01*
X199433915Y-106604244D01*
X198971722Y-106697171D01*
X198520261Y-106778987D01*
X198094870Y-106846062D01*
X198032115Y-106854924D01*
X197715996Y-106898833D01*
X197483705Y-106932021D01*
X197322352Y-106957522D01*
X197219047Y-106978374D01*
X197160899Y-106997612D01*
X197135019Y-107018270D01*
X197128515Y-107043385D01*
X197128600Y-107067694D01*
X197133426Y-107135992D01*
X197147004Y-107288586D01*
X197168097Y-107512594D01*
X197195468Y-107795131D01*
X197227880Y-108123315D01*
X197264095Y-108484263D01*
X197275000Y-108591923D01*
X197312074Y-108959837D01*
X197345701Y-109298637D01*
X197374642Y-109595449D01*
X197397661Y-109837398D01*
X197413520Y-110011610D01*
X197420983Y-110105211D01*
X197421399Y-110115373D01*
X197422961Y-110145685D01*
X197435974Y-110169363D01*
X197473110Y-110188881D01*
X197547036Y-110206712D01*
X197670423Y-110225329D01*
X197855939Y-110247206D01*
X198116253Y-110274818D01*
X198374038Y-110301378D01*
X199141097Y-110404807D01*
X199831612Y-110548941D01*
X200443260Y-110732724D01*
X200973715Y-110955098D01*
X201420654Y-111215008D01*
X201781750Y-111511398D01*
X202054681Y-111843209D01*
X202156572Y-112020494D01*
X202275659Y-112335364D01*
X202302577Y-112618518D01*
X202237408Y-112869548D01*
X202080233Y-113088046D01*
X201919210Y-113218934D01*
X201698019Y-113313817D01*
X201459522Y-113327002D01*
X201225409Y-113266359D01*
X201017369Y-113139763D01*
X200857090Y-112955087D01*
X200789153Y-112808723D01*
X200688302Y-112648857D01*
X200497706Y-112494326D01*
X200225278Y-112347858D01*
X199878930Y-112212180D01*
X199466575Y-112090019D01*
X198996126Y-111984101D01*
X198475494Y-111897155D01*
X197971058Y-111837426D01*
X197805666Y-111821214D01*
X197697870Y-111821285D01*
X197637702Y-111853341D01*
X197615195Y-111933086D01*
X197620381Y-112076223D01*
X197643293Y-112298456D01*
X197648304Y-112345902D01*
X197679684Y-112646135D01*
X197880323Y-112698413D01*
X198423167Y-112856901D01*
X198985893Y-113052274D01*
X199549554Y-113276005D01*
X200095206Y-113519569D01*
X200603902Y-113774442D01*
X201056698Y-114032099D01*
X201434648Y-114284014D01*
X201480783Y-114318546D01*
X201737151Y-114465055D01*
X201988654Y-114546420D01*
X202365139Y-114659047D01*
X202698156Y-114828128D01*
X203015189Y-115069167D01*
X203164267Y-115209512D01*
X203441233Y-115520970D01*
X203641962Y-115837706D01*
X203774642Y-116180517D01*
X203847463Y-116570199D01*
X203868651Y-116998450D01*
X203865983Y-117227716D01*
X203854291Y-117385292D01*
X203829063Y-117497076D01*
X203785783Y-117588966D01*
X203758164Y-117632287D01*
X203563423Y-117846986D01*
X203336109Y-117976827D01*
X203092024Y-118021413D01*
X202846971Y-117980343D01*
X202616752Y-117853220D01*
X202435857Y-117665662D01*
X202382925Y-117568881D01*
X202344745Y-117431350D01*
X202316601Y-117231681D01*
X202301204Y-117055085D01*
X202285645Y-116849552D01*
X202272619Y-116683165D01*
X202263895Y-116578218D01*
X202261434Y-116553846D01*
X202240423Y-116581370D01*
X202189317Y-116676952D01*
X202119107Y-116820017D01*
X202117926Y-116822500D01*
X201882221Y-117210767D01*
X201576821Y-117530578D01*
X201201958Y-117781698D01*
X201144962Y-117810859D01*
X200772966Y-117994808D01*
X199491671Y-118010583D01*
X198210375Y-118026358D01*
X198231789Y-118181544D01*
X198253415Y-118356151D01*
X198278825Y-118589097D01*
X198306013Y-118858527D01*
X198332974Y-119142587D01*
X198357699Y-119419425D01*
X198378181Y-119667185D01*
X198392415Y-119864014D01*
X198398394Y-119988059D01*
X198398461Y-119996592D01*
X198351284Y-120238362D01*
X198216378Y-120461298D01*
X198011518Y-120643549D01*
X197790408Y-120738164D01*
X197551162Y-120751014D01*
X197316074Y-120689265D01*
X197107433Y-120560089D01*
X196947533Y-120370653D01*
X196905696Y-120287922D01*
X196880169Y-120190819D01*
X196849524Y-120015775D01*
X196816561Y-119782220D01*
X196784084Y-119509586D01*
X196761296Y-119286576D01*
X196732920Y-118999096D01*
X196705005Y-118737567D01*
X196679729Y-118520867D01*
X196659268Y-118367873D01*
X196648054Y-118304913D01*
X196615577Y-118175404D01*
X195907308Y-118458913D01*
X195199038Y-118742422D01*
X195202396Y-118930346D01*
X195207296Y-119057732D01*
X195217860Y-119252612D01*
X195232371Y-119485066D01*
X195244059Y-119655577D01*
X195259810Y-119892847D01*
X195265166Y-120055397D01*
X195257636Y-120165881D01*
X195234728Y-120246952D01*
X195193950Y-120321262D01*
X195166270Y-120362684D01*
X194978177Y-120579659D01*
X194768340Y-120705375D01*
X194525784Y-120745669D01*
X194452109Y-120742568D01*
X194197609Y-120694548D01*
X194002193Y-120590478D01*
X193858593Y-120421357D01*
X193759541Y-120178180D01*
X193697768Y-119851945D01*
X193691870Y-119800881D01*
X193666906Y-119584483D01*
X193645067Y-119448488D01*
X193620637Y-119376005D01*
X193587903Y-119350147D01*
X193541151Y-119354024D01*
X193540720Y-119354126D01*
X193261145Y-119418842D01*
X193027867Y-119467671D01*
X192818711Y-119502869D01*
X192611502Y-119526687D01*
X192384065Y-119541382D01*
X192114224Y-119549208D01*
X191779804Y-119552417D01*
X191589877Y-119552974D01*
X191584423Y-119552990D01*
G37*
%TD*%
D10*
%TO.C,*%
X195470000Y-93850000D03*
X192230000Y-93850000D03*
%TD*%
D11*
%TO.C,MCU1*%
X186230000Y-62880000D03*
D10*
X186230000Y-65420000D03*
X186230000Y-67960000D03*
X186230000Y-70500000D03*
X186230000Y-73040000D03*
X186230000Y-75580000D03*
X186230000Y-78120000D03*
X186230000Y-80660000D03*
X186230000Y-83200000D03*
X186230000Y-85740000D03*
X186230000Y-88280000D03*
X186230000Y-90820000D03*
X201470000Y-62880000D03*
X201470000Y-65420000D03*
X201470000Y-67960000D03*
X201470000Y-70500000D03*
X201470000Y-73040000D03*
X201470000Y-75580000D03*
X201470000Y-78120000D03*
X201470000Y-80660000D03*
X201470000Y-83200000D03*
X201470000Y-85740000D03*
X201470000Y-88280000D03*
X201470000Y-90820000D03*
%TD*%
M02*
