M48
; DRILL file {KiCad 6.0.4} date Sun 03 Apr 2022 08:08:50 PM CEST
; FORMAT={-:-/ absolute / inch / decimal}
; #@! TF.CreationDate,2022-04-03T20:08:50+02:00
; #@! TF.GenerationSoftware,Kicad,Pcbnew,6.0.4
; #@! TF.FileFunction,NonPlated,1,2,NPTH
FMAT,2
INCH
; #@! TA.AperFunction,NonPlated,NPTH,ComponentDrill
T1C0.0354
; #@! TA.AperFunction,NonPlated,NPTH,ComponentDrill
T2C0.0670
; #@! TA.AperFunction,NonPlated,NPTH,ComponentDrill
T3C0.1181
; #@! TA.AperFunction,NonPlated,NPTH,ComponentDrill
T4C0.1350
%
G90
G05
T1
X7.4941Y-2.363
X7.4941Y-2.363
X7.6122Y-2.363
X7.6122Y-2.363
T2
X3.7933Y-3.065
X3.7933Y-3.065
X3.7933Y-3.7343
X3.7933Y-3.7343
X3.7933Y-4.4035
X3.7933Y-4.4035
X4.2264Y-3.065
X4.2264Y-3.065
X4.2264Y-3.7343
X4.2264Y-3.7343
X4.2264Y-4.4035
X4.2264Y-4.4035
X4.502Y-2.6713
X4.502Y-2.6713
X4.502Y-3.3406
X4.502Y-3.3406
X4.502Y-4.0098
X4.502Y-4.0098
X4.935Y-2.6713
X4.935Y-2.6713
X4.935Y-3.3406
X4.935Y-3.3406
X4.935Y-4.0098
X4.935Y-4.0098
X5.2106Y-2.3957
X5.2106Y-2.3957
X5.2106Y-3.065
X5.2106Y-3.065
X5.2106Y-3.7343
X5.2106Y-3.7343
X5.6437Y-2.3957
X5.6437Y-2.3957
X5.6437Y-3.065
X5.6437Y-3.065
X5.6437Y-3.7343
X5.6437Y-3.7343
X5.9193Y-2.6713
X5.9193Y-2.6713
X5.9193Y-3.3406
X5.9193Y-3.3406
X5.9193Y-4.0098
X5.9193Y-4.0098
X6.3524Y-2.6713
X6.3524Y-2.6713
X6.3524Y-3.3406
X6.3524Y-3.3406
X6.3524Y-4.0098
X6.3524Y-4.0098
X6.4311Y-4.7972
X6.4311Y-4.7972
X6.628Y-2.6713
X6.628Y-2.6713
X6.628Y-3.3406
X6.628Y-3.3406
X6.628Y-4.0098
X6.628Y-4.0098
X6.8642Y-4.7972
X6.8642Y-4.7972
X7.061Y-2.6713
X7.061Y-2.6713
X7.061Y-3.3406
X7.061Y-3.3406
X7.061Y-4.0098
X7.061Y-4.0098
X7.2829Y-5.4066
X7.2829Y-5.4066
X7.5891Y-5.1003
X7.5891Y-5.1003
T3
X3.813Y-2.9173
X3.813Y-3.5866
X3.813Y-4.2559
X4.0098Y-2.8307
X4.0098Y-2.8307
X4.0098Y-3.5
X4.0098Y-3.5
X4.0098Y-4.1693
X4.0098Y-4.1693
X4.2067Y-2.9173
X4.2067Y-3.5866
X4.2067Y-4.2559
X4.5217Y-2.5236
X4.5217Y-3.1929
X4.5217Y-3.8622
X4.7185Y-2.437
X4.7185Y-2.437
X4.7185Y-3.1063
X4.7185Y-3.1063
X4.7185Y-3.7756
X4.7185Y-3.7756
X4.9154Y-2.5236
X4.9154Y-3.1929
X4.9154Y-3.8622
X5.2303Y-2.248
X5.2303Y-2.9173
X5.2303Y-3.5866
X5.4272Y-2.1614
X5.4272Y-2.1614
X5.4272Y-2.8307
X5.4272Y-2.8307
X5.4272Y-3.5
X5.4272Y-3.5
X5.624Y-2.248
X5.624Y-2.9173
X5.624Y-3.5866
X5.939Y-2.5236
X5.939Y-3.1929
X5.939Y-3.8622
X6.1358Y-2.437
X6.1358Y-2.437
X6.1358Y-3.1063
X6.1358Y-3.1063
X6.1358Y-3.7756
X6.1358Y-3.7756
X6.3327Y-2.5236
X6.3327Y-3.1929
X6.3327Y-3.8622
X6.4508Y-4.6496
X6.6476Y-2.5236
X6.6476Y-3.1929
X6.6476Y-3.8622
X6.6476Y-4.563
X6.6476Y-4.563
X6.8445Y-2.437
X6.8445Y-2.437
X6.8445Y-3.1063
X6.8445Y-3.1063
X6.8445Y-3.7756
X6.8445Y-3.7756
X6.8445Y-4.6496
X7.0413Y-2.5236
X7.0413Y-3.1929
X7.0413Y-3.8622
X7.1924Y-5.2883
X7.2704Y-5.0878
X7.2704Y-5.0878
X7.4708Y-5.0099
T4
X4.0098Y-3.065
X4.0098Y-3.065
X4.0098Y-3.7343
X4.0098Y-3.7343
X4.0098Y-4.4035
X4.0098Y-4.4035
X4.7185Y-2.6713
X4.7185Y-2.6713
X4.7185Y-3.3406
X4.7185Y-3.3406
X4.7185Y-4.0098
X4.7185Y-4.0098
X5.4272Y-2.3957
X5.4272Y-2.3957
X5.4272Y-3.065
X5.4272Y-3.065
X5.4272Y-3.7343
X5.4272Y-3.7343
X6.1358Y-2.6713
X6.1358Y-2.6713
X6.1358Y-3.3406
X6.1358Y-3.3406
X6.1358Y-4.0098
X6.1358Y-4.0098
X6.6476Y-4.7972
X6.6476Y-4.7972
X6.8445Y-2.6713
X6.8445Y-2.6713
X6.8445Y-3.3406
X6.8445Y-3.3406
X6.8445Y-4.0098
X6.8445Y-4.0098
X7.436Y-5.2535
X7.436Y-5.2535
T0
M30
