%TF.GenerationSoftware,KiCad,Pcbnew,6.0.4*%
%TF.CreationDate,2022-04-03T20:08:53+02:00*%
%TF.ProjectId,lbd,6c62642e-6b69-4636-9164-5f7063625858,v1.0.0*%
%TF.SameCoordinates,Original*%
%TF.FileFunction,Profile,NP*%
%FSLAX46Y46*%
G04 Gerber Fmt 4.6, Leading zero omitted, Abs format (unit mm)*
G04 Created by KiCad (PCBNEW 6.0.4) date 2022-04-03 20:08:53*
%MOMM*%
%LPD*%
G01*
G04 APERTURE LIST*
%TA.AperFunction,Profile*%
%ADD10C,0.150000*%
%TD*%
G04 APERTURE END LIST*
D10*
X204850000Y-61350000D02*
G75*
G03*
X201850000Y-58350000I-3000000J0D01*
G01*
X112850000Y-58350000D02*
X124850000Y-58350000D01*
X111850000Y-114850000D02*
X111850000Y-118350000D01*
X157850000Y-114850000D02*
G75*
G03*
X154850000Y-111850000I-3000000J0D01*
G01*
X130850000Y-51350000D02*
X144850000Y-51350000D01*
X106850000Y-68350000D02*
G75*
G03*
X109850000Y-65350000I0J3000000D01*
G01*
X147850000Y-54350000D02*
G75*
G03*
X144850000Y-51350000I-3000000J0D01*
G01*
X109850000Y-65350000D02*
X109850000Y-61350000D01*
X130850000Y-51350000D02*
G75*
G03*
X127850000Y-54350000I0J-3000000D01*
G01*
X124850000Y-58350000D02*
G75*
G03*
X127850000Y-55350000I0J3000000D01*
G01*
X147850000Y-55350000D02*
G75*
G03*
X150850000Y-58350000I3000000J0D01*
G01*
X173523104Y-132228664D02*
G75*
G03*
X171401768Y-131350000I-2121304J-2121336D01*
G01*
X157850000Y-128350000D02*
G75*
G03*
X160850000Y-131350000I3000000J0D01*
G01*
X91850000Y-118350000D02*
G75*
G03*
X94850000Y-121350000I3000000J0D01*
G01*
X147850000Y-54350000D02*
X147850000Y-55350000D01*
X160850000Y-131350000D02*
X171401768Y-131350000D01*
X150850000Y-58350000D02*
X201850000Y-58350000D01*
X190642179Y-145105130D02*
X204925736Y-130821573D01*
X173523088Y-132228680D02*
X186399538Y-145105130D01*
X127850000Y-55350000D02*
X127850000Y-54350000D01*
X114850000Y-111850000D02*
X154850000Y-111850000D01*
X94850000Y-121350000D02*
X108850000Y-121350000D01*
X114850000Y-111850000D02*
G75*
G03*
X111850000Y-114850000I0J-3000000D01*
G01*
X94850000Y-68350000D02*
G75*
G03*
X91850000Y-71350000I0J-3000000D01*
G01*
X108850000Y-121350000D02*
G75*
G03*
X111850000Y-118350000I0J3000000D01*
G01*
X157850000Y-128350000D02*
X157850000Y-114850000D01*
X112850000Y-58350000D02*
G75*
G03*
X109850000Y-61350000I0J-3000000D01*
G01*
X186399579Y-145105089D02*
G75*
G03*
X190642179Y-145105131I2121321J2121289D01*
G01*
X204850000Y-130745837D02*
X204850000Y-61350000D01*
X204850000Y-130745837D02*
X204925736Y-130821573D01*
X91850000Y-118350000D02*
X91850000Y-71350000D01*
X94850000Y-68350000D02*
X106850000Y-68350000D01*
M02*
